<?xml version="1.0" standalone="no"?>
<!DOCTYPE svg PUBLIC "-//W3C//DTD SVG 20010904//EN"
 "http://www.w3.org/TR/2001/REC-SVG-20010904/DTD/svg10.dtd">
<svg version="1.0" xmlns="http://www.w3.org/2000/svg"
 width="400.000000pt" height="400.000000pt" viewBox="0 0 400.000000 400.000000"
 preserveAspectRatio="xMidYMid meet">

<g transform="translate(0.000000,400.000000) scale(0.100000,-0.100000)"
fill="#000000" stroke="none">
<path d="M1920 3856 c-115 -26 -207 -80 -297 -175 -71 -73 -100 -128 -114
-210 -12 -72 -11 -188 1 -273 11 -77 5 -109 -15 -82 -36 51 -66 -59 -46 -169
14 -75 24 -92 84 -151 45 -43 51 -47 58 -30 5 15 9 11 17 -21 6 -22 14 -67 17
-100 4 -33 9 -63 11 -67 3 -4 7 -45 9 -92 l4 -84 -50 -4 c-64 -7 -99 -32 -118
-90 -20 -56 -29 -68 -112 -134 -64 -51 -111 -74 -365 -178 -50 -21 -106 -51
-125 -67 -19 -16 -52 -38 -74 -48 -51 -23 -102 -66 -120 -101 -34 -65 -73
-193 -86 -276 -15 -102 -17 -323 -7 -699 4 -143 7 -293 8 -333 0 -71 1 -75 38
-112 34 -35 40 -50 77 -200 l40 -163 230 7 c147 5 251 13 288 22 57 14 83 12
72 -7 -9 -14 25 -23 38 -10 8 8 6 11 -9 12 -18 0 -18 1 1 9 11 5 32 9 48 9 29
1 38 21 9 21 -10 0 -27 7 -38 15 -10 8 -36 15 -56 15 -28 0 -40 5 -49 22 -6
13 -13 25 -15 26 -3 4 -59 -34 -82 -55 -14 -14 -36 -17 -92 -14 -19 1 -68 -5
-108 -13 -121 -26 -148 -20 -154 35 -3 20 6 29 52 52 45 23 63 27 100 22 25
-4 74 -5 110 -3 36 2 124 2 195 2 72 -1 113 1 93 3 -24 3 -39 10 -43 22 -3 10
-21 26 -40 37 -19 10 -37 25 -40 33 -5 12 -3 12 11 0 16 -13 16 -12 5 9 -6 12
-17 22 -23 22 -6 0 -9 2 -6 5 8 9 72 -17 92 -37 10 -11 24 -17 31 -14 21 8 89
-14 78 -25 -6 -6 -20 -6 -37 1 -15 5 -35 10 -44 9 -14 0 -14 -2 -2 -6 8 -3 18
-11 22 -16 3 -6 36 -11 72 -11 49 0 70 4 83 17 16 16 16 17 0 17 -9 0 -17 4
-17 8 0 9 -26 13 -82 14 -21 0 -38 4 -38 10 0 13 119 8 157 -8 17 -7 36 -22
43 -33 6 -12 18 -21 28 -21 9 0 22 -10 27 -22 6 -12 16 -23 23 -24 7 -1 8 0 2
3 -5 2 -10 11 -10 19 0 11 8 13 33 9 17 -4 43 -8 57 -9 14 -2 33 -7 43 -11 9
-4 17 -3 17 2 0 5 56 9 125 8 69 0 125 -3 125 -7 0 -5 14 -8 31 -8 16 0 28 -4
24 -9 -7 -12 22 -41 41 -41 8 0 14 -5 14 -11 0 -6 7 -17 16 -26 8 -9 13 -22
10 -29 -3 -8 -9 -21 -12 -29 -5 -12 3 -15 40 -15 34 0 46 4 46 15 0 20 -22 65
-32 65 -4 0 -8 7 -8 15 0 8 -4 15 -9 15 -4 0 -11 17 -14 38 -3 20 -8 46 -11
57 -4 11 5 -2 18 -30 32 -63 60 -83 132 -95 69 -11 83 -23 66 -50 -18 -29 -16
-32 26 -28 48 4 52 26 17 91 -23 45 -33 79 -18 64 3 -4 13 -1 21 6 10 8 13 8
9 1 -10 -16 16 -24 78 -24 30 0 57 -5 60 -10 4 -7 11 -7 18 -2 7 5 37 10 67
11 30 2 91 10 135 18 44 9 122 21 174 27 52 6 94 16 94 21 0 6 9 9 19 7 11 -2
26 2 34 9 8 6 17 9 20 6 4 -3 13 0 21 8 10 10 23 13 41 8 15 -4 38 -7 52 -6
37 3 40 -43 5 -59 -13 -6 -22 -15 -19 -19 3 -5 -6 -11 -20 -15 -14 -3 -27 -15
-30 -30 -4 -13 -16 -29 -29 -35 -12 -6 -32 -21 -45 -33 -13 -11 -47 -26 -75
-32 -43 -10 15 -12 316 -13 l368 -1 -7 48 c-3 26 -22 97 -40 157 -19 61 -48
160 -65 221 l-30 111 30 31 c17 17 31 35 31 41 0 8 -69 95 -89 111 -3 3 -7 10
-8 15 -1 6 -29 52 -62 102 -34 51 -61 101 -61 112 0 34 -59 250 -79 289 -11
21 -27 67 -36 103 -19 74 -99 246 -145 314 -43 62 -149 175 -165 175 -7 0 -43
18 -81 40 -37 21 -111 56 -163 76 -53 20 -116 48 -141 61 -25 14 -84 42 -132
63 -85 37 -87 38 -91 17 -3 -14 -5 -9 -6 13 -3 49 -24 104 -57 148 l-29 37 -6
-30 c-5 -23 -7 -18 -8 25 l-2 55 -26 -30 -25 -30 22 40 c13 22 31 49 40 60 26
32 116 167 133 200 8 17 29 86 45 155 39 158 44 193 32 185 -6 -4 -10 6 -9 22
0 24 1 25 9 8 7 -18 8 -19 15 -2 4 9 4 29 1 43 -6 21 -3 27 14 31 16 4 20 12
18 32 -2 14 -9 27 -15 27 -24 3 -25 4 -13 19 10 12 10 19 2 27 -9 9 -17 7 -33
-8 l-22 -19 6 60 c4 33 7 76 7 95 0 23 3 31 9 21 13 -21 23 106 12 169 -26
156 -140 286 -325 374 -112 53 -200 65 -306 42z m148 -254 c34 -2 42 -6 42
-20 0 -22 27 -79 41 -87 11 -7 12 -82 1 -89 -12 -7 -15 -143 -3 -151 15 -8 14
-45 -1 -78 -15 -30 -11 -30 -198 -33 -63 -1 -126 -3 -140 -5 -22 -4 -25 -1
-23 25 1 16 7 33 14 37 8 5 6 16 -7 39 -15 25 -16 34 -6 37 10 4 10 8 1 19 -6
8 -8 25 -5 39 5 18 2 25 -8 25 -9 0 -16 -12 -18 -27 -2 -23 -4 -25 -10 -10 -8
18 10 41 48 63 15 9 19 23 19 72 0 34 -2 62 -5 62 -3 0 -6 9 -7 19 -3 31 110
68 197 65 14 0 44 -2 68 -2z m198 -434 c-10 -6 -22 -6 -26 -2 -5 5 3 10 18 11
22 1 24 0 8 -9z m-736 -98 c0 -5 -2 -10 -4 -10 -3 0 -8 5 -11 10 -3 6 -1 10 4
10 6 0 11 -4 11 -10z m17 -42 c-3 -7 -5 -2 -5 12 0 14 2 19 5 13 2 -7 2 -19 0
-25z m-40 -8 c1 -14 -4 -20 -18 -20 -18 0 -27 29 -13 43 11 11 30 -3 31 -23z
m458 -20 c3 -5 -3 -10 -15 -10 -12 0 -18 5 -15 10 3 6 10 10 15 10 5 0 12 -4
15 -10z m200 -62 c8 -28 18 -78 21 -112 5 -51 3 -65 -13 -85 -16 -20 -23 -22
-41 -12 -11 6 -39 11 -62 11 -44 0 -90 24 -90 46 0 8 4 14 9 14 5 0 11 7 14
14 8 20 -15 11 -80 -32 l-53 -35 -47 21 c-27 12 -47 26 -46 32 2 5 0 10 -5 10
-17 1 -33 18 -41 46 -8 27 -6 29 19 28 15 0 47 -15 71 -32 49 -36 73 -39 149
-16 41 12 65 28 97 62 23 26 48 59 54 74 15 36 25 28 44 -34z m150 52 c3 -5 2
-10 -4 -10 -5 0 -13 5 -16 10 -3 6 -2 10 4 10 5 0 13 -4 16 -10z m-418 -16
c-3 -3 -12 -4 -19 -1 -8 3 -5 6 6 6 11 1 17 -2 13 -5z m-350 -33 c10 9 13 3
13 -32 -1 -33 -3 -40 -10 -27 -6 9 -18 14 -29 11 -11 -3 -21 2 -25 12 -8 22
13 50 27 36 7 -7 15 -7 24 0z m493 -21 c0 -11 -4 -20 -9 -20 -11 0 -22 26 -14
34 12 12 23 5 23 -14z m-23 -19 c11 -18 8 -22 -31 -40 -52 -26 -63 -26 -117
-2 -48 22 -43 26 41 36 30 3 62 10 70 15 21 13 24 13 37 -9z m-527 -16 c11
-13 10 -14 -4 -9 -9 3 -16 10 -16 15 0 13 6 11 20 -6z m44 -21 c10 -25 7 -34
-9 -28 -8 4 -15 15 -15 25 0 23 16 25 24 3z m912 -9 c-11 -8 -25 -15 -30 -15
-6 1 0 7 14 15 32 19 40 18 16 0z m-852 -51 c3 -8 2 -12 -4 -9 -6 3 -10 10
-10 16 0 14 7 11 14 -7z m420 -94 c24 -22 49 -40 56 -40 6 0 23 -9 37 -20 17
-13 34 -18 46 -14 13 4 17 2 12 -6 -4 -7 -18 -9 -38 -4 -18 3 -29 3 -25 -1 13
-13 -13 -35 -41 -35 -14 0 -34 7 -44 14 -9 7 -28 11 -41 9 -26 -5 -27 -4 -27
65 0 49 5 72 13 72 5 0 28 -18 52 -40z m126 -110 c0 -5 -5 -10 -11 -10 -5 0
-7 5 -4 10 3 6 8 10 11 10 2 0 4 -4 4 -10z m-151 -57 c9 9 17 8 31 -1 12 -7
20 -8 20 -2 0 6 26 8 70 5 57 -4 74 -10 95 -31 l25 -25 -20 -29 c-18 -26 -24
-28 -47 -19 -15 5 -32 8 -39 5 -8 -3 -16 -1 -19 4 -3 5 -17 7 -30 4 -26 -5
-81 18 -87 36 -2 6 -14 12 -28 13 -25 1 -52 26 -44 39 2 3 17 3 33 -2 19 -5
33 -4 40 3z m59 -168 c39 -19 78 -35 86 -35 12 0 13 -5 7 -22 -6 -18 -19 -24
-52 -29 -89 -12 -140 26 -136 104 2 37 4 44 13 32 6 -8 43 -30 82 -50z m-318
-45 c9 13 10 13 10 -1 0 -17 50 -65 64 -61 5 2 6 -4 3 -13 -4 -8 -3 -15 1 -15
4 0 17 -7 27 -15 64 -50 128 -95 136 -95 5 0 9 -4 9 -10 0 -5 -9 -10 -20 -10
-11 0 -21 -4 -21 -10 -1 -5 -2 -16 -3 -22 -1 -7 -7 -12 -14 -11 -6 2 -9 -4 -6
-12 9 -23 -22 -48 -48 -39 -103 32 -189 96 -228 168 -12 23 -11 28 8 44 27 23
44 69 36 94 -5 17 -4 18 15 6 18 -11 23 -11 31 2z m1304 -1516 c20 -19 20 -28
1 -63 -14 -28 -33 -41 -61 -41 -18 0 -17 67 2 98 17 26 36 28 58 6z m264 -46
c29 -29 -9 -95 -65 -112 -12 -4 -31 -22 -42 -40 -30 -48 -117 -126 -140 -126
-23 0 -51 42 -32 48 6 2 11 9 11 17 0 17 147 155 166 155 8 0 14 9 14 19 0 37
62 65 88 39z m-318 -100 c0 -19 -42 -138 -49 -138 -3 0 -12 14 -20 31 -11 26
-11 38 -1 70 7 21 20 40 29 42 30 8 41 7 41 -5z m448 -50 c19 -19 14 -63 -9
-84 -16 -14 -23 -15 -26 -6 -3 6 -10 12 -15 12 -6 0 -8 -3 -5 -6 7 -7 -110
-124 -123 -124 -5 0 -16 -7 -24 -16 -9 -8 -24 -17 -35 -19 -11 -2 -29 -9 -41
-15 -20 -11 -21 -10 -11 9 6 11 8 26 5 34 -5 14 14 32 116 112 25 20 64 54 87
75 43 42 61 48 81 28z m-2368 -82 c38 -14 43 -29 22 -63 -12 -20 -20 -22 -68
-18 -33 3 -54 1 -54 -6 0 -5 29 -28 65 -50 36 -23 65 -45 65 -49 0 -4 21 -10
46 -14 58 -7 73 -19 67 -51 -9 -43 -39 -54 -136 -48 -83 6 -87 7 -87 29 0 27
-15 32 -24 9 -3 -8 -18 -15 -33 -16 -25 0 -26 -1 -8 -9 19 -8 19 -9 -3 -9 -13
-1 -21 -5 -18 -10 3 -5 -8 -11 -25 -15 -23 -4 -39 0 -60 15 -32 23 -37 50 -13
73 8 9 11 16 6 16 -5 0 -12 26 -15 57 -4 37 -12 62 -23 70 -34 25 25 60 118
70 36 3 66 12 71 19 10 17 60 17 107 0z m175 -58 c50 -26 55 -41 22 -63 -21
-13 -28 -13 -70 1 -41 14 -47 20 -47 43 0 49 25 54 95 19z m1668 -36 c-3 -15
-9 -29 -12 -32 -3 -3 -13 -18 -20 -33 -10 -19 -17 -24 -22 -15 -8 16 1 79 11
73 4 -2 12 7 19 21 14 32 33 21 24 -14z m121 23 c-4 -8 -8 -15 -10 -15 -2 0
-4 7 -4 15 0 8 4 15 10 15 5 0 7 -7 4 -15z m416 -49 c0 -42 -26 -76 -61 -80
-15 -1 -38 -15 -51 -30 -17 -20 -36 -30 -66 -33 -25 -3 -42 -1 -42 5 0 6 4 12
8 14 10 4 87 68 145 121 51 46 67 47 67 3z m-426 8 c4 -9 1 -23 -5 -31 -7 -7
-12 -28 -11 -46 0 -17 -6 -40 -15 -49 -17 -19 -17 -20 26 -22 19 -1 27 3 24
12 -3 6 2 12 11 12 9 0 16 3 16 8 0 4 7 16 16 27 13 17 16 18 25 5 9 -12 10
-10 6 7 -3 13 -2 25 2 27 4 3 8 -5 8 -16 1 -12 7 -24 14 -28 7 -5 -7 -27 -42
-63 -52 -54 -56 -56 -114 -59 -56 -3 -60 -1 -63 20 -2 12 -10 22 -18 22 -19 0
-18 6 6 30 11 11 20 27 20 35 0 18 12 19 29 3 10 -11 10 -7 1 17 -9 24 -8 36
7 67 19 39 46 50 57 22z m471 -41 c-19 -45 -31 -58 -21 -23 4 14 9 32 11 40 2
8 4 16 4 18 1 1 6 2 11 2 6 0 4 -16 -5 -37z m-678 -188 c-4 -8 -11 -15 -17
-15 -6 0 -6 7 2 20 14 22 24 19 15 -5z m-614 -32 c-4 -11 -3 -14 5 -9 7 4 12
1 12 -8 0 -23 -44 -4 -48 20 -3 16 -1 17 7 4 9 -13 11 -12 11 3 0 10 4 16 10
12 5 -3 6 -13 3 -22z m80 -127 c4 -10 0 -12 -14 -9 -10 3 -16 9 -13 14 8 13
21 11 27 -5z"/>
<path d="M1820 3371 c0 -5 6 -11 13 -14 9 -3 9 -8 -2 -21 -11 -13 -11 -20 -3
-28 9 -9 12 -9 12 0 0 10 5 10 21 1 16 -8 24 -8 33 1 8 10 7 14 -3 18 -8 3
-25 16 -38 28 -26 26 -33 29 -33 15z"/>
<path d="M1817 3165 c-10 -7 -14 -15 -10 -18 12 -8 36 9 32 21 -3 7 -10 6 -22
-3z"/>
<path d="M2935 280 c-3 -5 -1 -10 4 -10 6 0 11 5 11 10 0 6 -2 10 -4 10 -3 0
-8 -4 -11 -10z"/>
<path d="M1196 145 c7 -16 14 -18 38 -9 22 9 10 24 -19 24 -18 0 -23 -4 -19
-15z"/>
<path d="M2310 51 c44 -13 120 -21 120 -12 0 9 -75 22 -119 20 l-26 -1 25 -7z"/>
</g>
</svg>
